<svg width="32" height="32" viewBox="0 0 48 48" fill="none" xmlns="http://www.w3.org/2000/svg">
  <path d="M24 4L6 12V22C6 33.1 13.68 43.32 24 46C34.32 43.32 42 33.1 42 22V12L24 4Z" fill="url(#g1)"/>
  <path d="M24 7L9 13.5V22C9 31.39 15.42 39.94 24 42.7C32.58 39.94 39 31.39 39 22V13.5L24 7Z" fill="white" opacity="0.2"/>
  <circle cx="20" cy="18" r="4" fill="white"/>
  <path d="M14 32C14 27.5817 17.134 24 21 24H19C22.866 24 26 27.5817 26 32V34H14V32Z" fill="white"/>
  <circle cx="30" cy="21" r="3" fill="white" opacity="0.9"/>
  <path d="M25 34C25 30.6863 27.2386 28 30 28C32.7614 28 35 30.6863 35 34V35H25V34Z" fill="white" opacity="0.9"/>
  <path d="M34 12L36 14L40 10" stroke="#E8836B" stroke-width="2.5" stroke-linecap="round" stroke-linejoin="round"/>
  <defs>
    <linearGradient id="g1" x1="24" y1="4" x2="24" y2="46" gradientUnits="userSpaceOnUse">
      <stop stop-color="#5AABAB"/>
      <stop offset="1" stop-color="#3D8585"/>
    </linearGradient>
  </defs>
</svg>
